HIERARCHY
ROOT root
{
  OFFSET 0.000000 0.000000 0.000000
  CHANNELS 6 Xposition Yposition Zposition Zrotation Yrotation Xrotation
  JOINT lhipjoint
  {
    OFFSET 0.000000 0.000000 0.000000
    CHANNELS 3 Zrotation Yrotation Xrotation
    JOINT lfemur
    {
      OFFSET 0.076955 -0.088858 0.062674
      CHANNELS 3 Zrotation Yrotation Xrotation
      JOINT ltibia
      {
        OFFSET 0.134602 -0.369817 0.000000
        CHANNELS 3 Zrotation Yrotation Xrotation
        JOINT lfoot
        {
          OFFSET 0.133867 -0.367797 0.000000
          CHANNELS 3 Zrotation Yrotation Xrotation
          JOINT ltoes
          {
            OFFSET 0.016413 -0.045094 0.113675
            CHANNELS 3 Zrotation Yrotation Xrotation
            End Site
            {
              OFFSET 0.000000 -0.000000 0.060917
            }
          }
        }
      }
    }
  }
  JOINT rhipjoint
  {
    OFFSET 0.000000 0.000000 0.000000
    CHANNELS 3 Zrotation Yrotation Xrotation
    JOINT rfemur
    {
      OFFSET -0.076961 -0.088859 0.062674
      CHANNELS 3 Zrotation Yrotation Xrotation
      JOINT rtibia
      {
        OFFSET -0.129575 -0.356005 0.000000
        CHANNELS 3 Zrotation Yrotation Xrotation
        JOINT rfoot
        {
          OFFSET -0.136022 -0.373719 0.000000
          CHANNELS 3 Zrotation Yrotation Xrotation
          JOINT rtoes
          {
            OFFSET -0.013093 -0.035974 0.108504
            CHANNELS 3 Zrotation Yrotation Xrotation
            End Site
            {
              OFFSET -0.000000 -0.000000 0.057326
            }
          }
        }
      }
    }
  }
  JOINT lowerback
  {
    OFFSET 0.000000 0.000000 0.000000
    CHANNELS 3 Zrotation Yrotation Xrotation
    JOINT upperback
    {
      OFFSET -0.004835 0.114922 -0.013864
      CHANNELS 3 Zrotation Yrotation Xrotation
      JOINT thorax
      {
        OFFSET -0.000021 0.116102 0.000122
        CHANNELS 3 Zrotation Yrotation Xrotation
        JOINT lowerneck
        {
          OFFSET 0.002188 0.117937 0.006733
          CHANNELS 3 Zrotation Yrotation Xrotation
          JOINT upperneck
          {
            OFFSET -0.002068 0.095682 0.017943
            CHANNELS 3 Zrotation Yrotation Xrotation
            JOINT head
            {
              OFFSET 0.000526 0.096058 -0.025972
              CHANNELS 3 Zrotation Yrotation Xrotation
              End Site
              {
                OFFSET 0.000701 0.100257 -0.010937
              }
            }
          }
        }
        JOINT lclavicle
        {
          OFFSET 0.002188 0.117937 0.006733
          CHANNELS 3 Zrotation Yrotation Xrotation
          JOINT lhumerus
          {
            OFFSET 0.211297 0.045898 -0.020685
            CHANNELS 3 Zrotation Yrotation Xrotation
            JOINT lradius
            {
              OFFSET 0.280633 -0.000000 -0.000000
              CHANNELS 3 Zrotation Yrotation Xrotation
              JOINT lwrist
              {
                OFFSET 0.189547 -0.000000 0.000000
                CHANNELS 3 Zrotation Yrotation Xrotation
                End Site
                {
                  OFFSET 0.094773 -0.000000 0.000000
                }
              }
            }
          }
        }
        JOINT rclavicle
        {
          OFFSET 0.002188 0.117937 0.006733
          CHANNELS 3 Zrotation Yrotation Xrotation
          JOINT rhumerus
          {
            OFFSET -0.211884 0.028598 -0.003683
            CHANNELS 3 Zrotation Yrotation Xrotation
            JOINT rradius
            {
              OFFSET -0.280243 -0.000000 -0.000000
              CHANNELS 3 Zrotation Yrotation Xrotation
              JOINT rwrist
              {
                OFFSET -0.189049 -0.000000 0.000000
                CHANNELS 3 Zrotation Yrotation Xrotation
                End Site
                {
                  OFFSET -0.094524 -0.000000 0.000000
                }
              }
            }
          }
        }
      }
    }
  }
}
MOTION
Frames: 17
Frame Time: 0.04166667
0.00000 0.84804 0.00000 62.33700 83.91590 80.74120 0.00000 -0.00000 0.00000 -5.32448 -7.71613 -62.28447 6.01869 14.44643 45.05669 0.23381 -2.30634 -8.62513 1.93488 -8.72910 -24.95154 0.00000 -0.00000 0.00000 2.57300 1.77079 -42.98512 -11.09555 -17.98153 63.09147 -3.23006 -5.41388 -36.15009 -0.90101 6.04939 -16.92779 -3.00239 -0.78861 34.57920 -2.66923 -1.47408 7.44956 -0.73168 -0.26222 -9.27812 1.57460 8.99798 -30.99110 -19.98060 18.92120 21.51350 -4.03931 5.74357 15.25140 -0.00000 -0.00000 0.00000 -99.86713 -31.47041 116.05831 22.33513 -33.35371 -6.76918 0.00000 -0.00000 -2.44314 -0.00000 -0.00000 0.00000 82.03270 6.85469 51.97157 -28.20770 39.30674 -10.25499 -0.00000 0.00000 -62.37630
0.00000 0.83122 0.00000 41.53600 84.12910 60.64600 0.00000 -0.00000 0.00000 -2.88291 -9.61539 -66.03562 7.12151 15.43336 49.33239 0.00276 -3.52744 -2.59902 0.82565 -5.79735 -16.19757 0.00000 -0.00000 0.00000 1.06850 1.71728 -41.17578 -11.50207 -18.17213 64.40154 -3.50996 -4.27687 -37.08482 -1.61603 8.01578 -22.76201 -3.32023 -0.25981 35.66140 -3.16412 -1.04741 7.19848 -1.27944 -0.04920 -9.84277 1.56139 8.58571 -31.10450 -20.23420 17.56380 18.58950 -4.35370 5.37384 13.84790 0.00000 0.00000 0.00000 -101.00625 -30.84903 116.06817 21.26606 -32.13760 -6.19087 0.00000 -0.00000 -0.96865 0.00000 0.00000 0.00000 81.63887 6.63629 53.06433 -27.59185 38.73777 -9.86723 -0.00000 0.00000 -63.69480
0.00000 0.81220 0.00000 24.53500 82.97300 45.13200 0.00000 -0.00000 0.00000 -3.13317 -10.70481 -71.69295 10.76980 17.82058 62.03173 0.15181 -3.14002 -6.94374 0.27341 -3.36335 -9.29204 0.00000 -0.00000 0.00000 -1.97043 2.46083 -39.48247 -11.71174 -18.26612 65.07216 -3.59471 -5.23269 -37.90455 -2.55439 9.93614 -28.77017 -4.99228 0.35636 36.00480 -3.78764 -1.05170 6.71594 -1.07335 -0.01722 -10.46910 0.42400 7.63067 -32.95490 -17.14130 15.24200 16.82820 -3.45238 4.67390 12.63100 0.00000 -0.00000 0.00000 -102.31433 -31.35566 118.17262 19.71221 -30.29405 -5.38542 0.00000 -0.00000 -2.70959 0.00000 -0.00000 0.00000 82.97877 6.10938 51.74182 -26.41160 37.61227 -9.13771 -0.00000 0.00000 -63.17290
0.00000 0.80974 0.00000 12.02900 82.27150 33.78500 0.00000 -0.00000 0.00000 -5.05770 -10.42376 -72.91266 12.72218 18.67954 68.26035 0.41756 -6.43658 -11.67931 0.04651 -1.39186 -3.82769 0.00000 -0.00000 0.00000 -3.06823 3.36017 -36.10461 -10.76139 -17.81633 62.00426 -3.01307 -8.91817 -36.79418 -2.89019 10.51514 -30.66155 -5.75071 0.85871 35.54840 -3.80469 -0.72789 6.49912 -0.81785 0.13061 -10.52100 0.35736 7.09940 -33.18150 -15.67490 13.93400 16.30020 -3.17173 4.29478 12.13680 -0.00000 -0.00000 0.00000 -102.63484 -31.93158 121.06120 19.33798 -29.83648 -5.19793 0.00000 -0.00000 -2.06941 -0.00000 -0.00000 0.00000 84.57595 6.68676 49.71469 -23.21047 34.31816 -7.25661 -0.00000 0.00000 -58.83480
0.00000 0.82586 0.00000 -2.43100 81.89360 20.38100 0.00000 -0.00000 0.00000 -6.17731 -10.61529 -70.59630 12.76835 18.69692 68.40445 0.62524 -7.77311 -14.29339 0.00183 0.27637 0.75934 0.00000 -0.00000 0.00000 -0.95284 2.99465 -32.31833 -8.60614 -16.54748 54.71778 -2.08861 -13.73108 -35.05842 -2.05307 8.97575 -25.71951 -5.74668 1.09361 35.04370 -3.58652 -0.44669 6.19837 -0.68905 0.23618 -10.67330 0.57088 7.04509 -34.37270 -13.60740 13.03230 15.71130 -2.61671 4.14719 11.79630 0.00000 -0.00000 0.00000 -99.38028 -32.20368 119.89761 22.72485 -33.78655 -6.98468 0.00000 -0.00000 -2.44074 0.00000 -0.00000 0.00000 86.19153 9.43189 48.71270 -17.75155 27.83787 -4.43261 -0.00000 0.00000 -47.35290
0.00000 0.84513 0.00000 -13.80000 79.68200 10.57600 0.00000 -0.00000 0.00000 -6.00398 -10.94678 -67.87392 12.14722 18.45219 66.45471 0.94842 -6.39822 -17.37301 0.00205 -0.29264 -0.80406 0.00000 -0.00000 0.00000 1.80677 2.47753 -31.23579 -6.63806 -15.01938 47.49178 -1.74596 -13.48579 -32.92252 -1.88585 8.62415 -24.62653 -5.88258 1.97872 31.83540 -3.39670 0.74416 5.79268 -0.77113 0.71579 -10.01930 -0.25415 5.85447 -34.12380 -10.86390 10.79320 14.19120 -1.94116 3.55635 10.70120 -0.00000 0.00000 0.00000 -93.95019 -32.90632 116.33269 30.29538 -41.14524 -11.60349 0.00000 -0.00000 -4.87473 -0.00000 0.00000 0.00000 86.47279 10.28300 46.46483 -15.25394 24.49867 -3.33053 -0.00000 0.00000 -28.92670
0.00000 0.86567 0.00000 -15.90800 76.34700 8.91700 0.00000 -0.00000 0.00000 -6.72217 -10.29204 -63.51195 11.03852 17.95389 62.90662 1.21049 -4.55868 -19.78765 0.00594 -0.49784 -1.36796 0.00000 -0.00000 0.00000 4.02925 3.42435 -31.15060 -5.51692 -13.94329 43.01073 -1.37002 -12.56312 -29.82058 -1.31632 7.26686 -20.50840 -7.61919 3.03560 27.64730 -3.19602 1.86895 5.87586 0.12391 1.20120 -8.79078 -0.67477 5.07142 -33.22260 -9.35216 9.31282 12.38860 -1.62537 3.18408 9.67608 -0.00000 -0.00000 0.00000 -84.99045 -33.13689 106.11263 40.91523 -48.60288 -19.12298 0.00000 -0.00000 -8.97919 -0.00000 -0.00000 0.00000 84.03479 9.60494 50.66821 -19.65357 30.22270 -5.35587 -0.00000 0.00000 -21.58890
0.00000 0.88238 0.00000 -15.46100 75.01600 9.09000 0.00000 -0.00000 0.00000 -8.09992 -9.86384 -58.73107 9.72577 17.25274 58.56784 1.33977 -3.67548 -20.98273 0.00128 -0.23102 -0.63474 0.00000 -0.00000 0.00000 6.46511 4.06758 -31.77716 -5.08423 -13.47803 41.18532 -1.23295 -13.14812 -29.41001 -0.73969 5.49427 -15.32385 -8.38030 2.96575 23.87730 -3.15804 1.89019 5.36300 0.72765 1.17737 -7.48222 -0.08436 5.29934 -32.59290 -8.37072 9.10634 12.63690 -1.41424 3.23213 9.61208 0.00000 -0.00000 0.00000 -74.82668 -30.65746 91.65892 44.89593 -50.71739 -22.15817 0.00000 -0.00000 -9.65728 0.00000 -0.00000 0.00000 83.27544 8.96327 50.99924 -24.95198 36.15487 -8.26156 -0.00000 0.00000 -26.44270
0.00000 0.89675 0.00000 -12.65000 74.37800 10.96500 0.00000 -0.00000 0.00000 -9.93722 -9.52135 -53.65451 8.55477 16.51251 54.53722 1.42555 -2.67125 -21.86058 0.00166 -0.26274 -0.72190 0.00000 -0.00000 0.00000 7.95084 4.33260 -32.63760 -4.92547 -13.29937 40.49970 -1.00987 -13.42649 -28.11477 -0.55119 4.75603 -13.21400 -8.99813 3.05452 20.25010 -3.04956 2.21794 4.94874 1.23497 1.29286 -6.10391 0.73703 5.64475 -31.57080 -8.42123 9.25898 13.40250 -1.54041 3.32083 9.77614 -0.00000 0.00000 0.00000 -66.55992 -28.40119 81.00912 42.52012 -49.49409 -20.33517 0.00000 -0.00000 -4.94548 -0.00000 0.00000 0.00000 83.44150 7.16653 48.83503 -29.57145 40.52322 -11.13011 -0.00000 0.00000 -33.41410
0.00000 0.91022 0.00000 -8.60200 74.27500 14.13100 0.00000 -0.00000 0.00000 -12.00443 -8.14012 -49.22102 7.22436 15.51795 49.71786 1.29756 -2.60842 -20.83385 0.00069 0.17007 0.46727 0.00000 -0.00000 0.00000 7.73426 3.73707 -34.73258 -5.22593 -13.63380 41.78987 -0.49267 -14.03221 -24.71988 -0.49961 4.53145 -12.57684 -9.51440 3.00264 17.68080 -2.94946 2.31764 4.60965 1.70194 1.31096 -5.14352 0.68651 5.58012 -31.48760 -8.08860 9.20675 14.52410 -1.42112 3.28034 10.14380 0.00000 -0.00000 0.00000 -59.77599 -25.74417 74.05787 40.21703 -48.19795 -18.60086 0.00000 -0.00000 -3.67365 0.00000 -0.00000 0.00000 83.44733 6.24652 46.88025 -30.25000 41.10672 -11.57364 -0.00000 0.00000 -30.94050
0.00000 0.92173 0.00000 -7.68600 74.78700 14.41800 0.00000 -0.00000 0.00000 -12.56152 -6.76041 -45.55904 6.13241 14.55544 45.51085 1.15584 -2.46524 -19.65241 0.00006 0.04990 0.13711 0.00000 -0.00000 0.00000 6.66690 4.03340 -35.81462 -4.68193 -13.01639 39.42986 -0.45114 -8.87729 -18.88953 -0.38046 3.96133 -10.96790 -9.35049 2.75750 15.87300 -2.28560 2.20445 4.13349 2.40189 1.23356 -4.70209 0.63085 5.53900 -30.76930 -7.67422 9.14467 15.51210 -1.28156 3.27152 10.35740 -0.00000 0.00000 0.00000 -56.83535 -21.37709 67.64027 40.28979 -48.24065 -18.65512 0.00000 -0.00000 -3.43191 -0.00000 0.00000 0.00000 81.94264 4.08412 46.07525 -30.40302 41.23634 -11.67437 -0.00000 0.00000 -28.93190
0.00000 0.92761 0.00000 -7.03400 75.88300 14.27900 0.00000 -0.00000 0.00000 -12.46455 -5.45382 -42.72730 5.40263 13.82336 42.53441 1.09991 -2.35226 -19.17842 0.01933 -0.89769 -2.46735 0.00000 -0.00000 0.00000 4.69885 4.29682 -35.76486 -3.51269 -11.48205 33.92341 -0.31433 -8.67289 -17.08386 -0.87632 5.96813 -16.69197 -8.67846 2.37580 14.76980 -1.50670 1.92686 3.86870 2.94127 1.07659 -4.37096 -0.00546 4.82274 -29.21810 -6.89608 8.22962 15.73020 -1.08684 2.94028 10.07090 -0.00000 0.00000 0.00000 -57.92158 -17.17134 60.16987 42.03843 -49.23227 -19.96964 0.00000 -0.00000 -4.07407 -0.00000 0.00000 0.00000 79.66183 1.68656 45.58916 -31.82678 42.40864 -12.62385 -0.00000 0.00000 -28.34020
0.00000 0.93015 0.00000 -0.60800 77.52500 19.66600 0.00000 -0.00000 0.00000 -12.37188 -5.80784 -39.34284 4.69525 13.03216 39.48896 1.03579 -1.94309 -18.68349 0.07398 -1.75471 -4.82825 0.00000 -0.00000 0.00000 1.73505 5.27338 -34.24943 -2.15632 -9.18437 26.37376 -0.18513 -7.86245 -14.45371 -1.07455 6.58935 -18.50435 -8.29220 1.78849 14.40200 -1.43040 1.26728 3.95297 2.94000 0.73846 -4.00102 -0.76879 4.02888 -29.71020 -6.16271 7.35607 16.51190 -0.84809 2.54017 10.33920 0.00000 -0.00000 0.00000 -61.91640 -13.87037 50.54625 43.58798 -50.05768 -21.15053 0.00000 -0.00000 -5.37867 0.00000 -0.00000 0.00000 79.36984 0.29742 43.87623 -34.14613 44.19270 -14.21483 -0.00000 0.00000 -27.01160
0.00000 0.93065 0.00000 7.36300 77.79900 26.68400 0.00000 -0.00000 0.00000 -11.55515 -5.90890 -35.71969 3.98985 12.14688 36.25357 0.95352 -0.44340 -18.31609 0.28000 -3.40336 -9.40384 0.00000 -0.00000 0.00000 3.42555 3.09297 -35.87265 -2.51152 -9.85882 28.52073 -0.25618 -5.75375 -13.39195 -0.49803 4.52441 -12.55689 -8.12613 1.49811 13.79810 -1.82467 0.92565 3.61486 2.49719 0.57497 -3.98749 -0.81273 4.10537 -29.37000 -6.38187 7.57681 17.08200 -0.88246 2.59583 10.51050 0.00000 0.00000 0.00000 -67.16141 -9.59075 42.40648 44.15943 -50.34997 -21.58959 0.00000 -0.00000 -12.36450 0.00000 0.00000 0.00000 81.03931 -0.30426 43.03776 -35.04020 44.84082 -14.84170 -0.00000 0.00000 -27.55750
0.00000 0.93013 0.00000 9.07700 78.52800 27.16600 0.00000 -0.00000 0.00000 -8.90444 -6.13255 -31.07355 3.29198 11.15334 32.79879 0.85442 1.69519 -18.15252 0.66641 -5.22064 -14.53894 0.00000 -0.00000 0.00000 6.49695 3.02013 -35.56023 -3.07607 -10.81719 31.66581 -0.44932 -4.29015 -14.96714 -0.26809 3.33076 -9.20101 -7.07337 1.05980 12.38460 -1.10380 0.59172 3.18932 2.73599 0.38643 -3.63616 -0.97832 4.21782 -27.31920 -7.54035 8.11664 17.69950 -1.19752 2.71807 10.47160 0.00000 -0.00000 0.00000 -71.98194 -4.36652 39.59146 41.71607 -49.05437 -19.72582 0.00000 -0.00000 -20.44080 0.00000 -0.00000 0.00000 81.02334 -1.04420 44.40660 -34.75066 44.63326 -14.63790 -0.00000 0.00000 -27.20890
0.00000 0.93118 0.00000 10.54100 79.32400 28.13800 0.00000 -0.00000 0.00000 -6.76751 -7.48500 -27.28334 2.71336 10.21590 29.67876 0.72892 5.11325 -18.78386 0.62214 -5.04756 -14.04427 0.00000 -0.00000 0.00000 9.12403 3.22685 -34.92620 -3.45764 -11.40140 33.64590 -0.69481 -3.78433 -17.56885 -0.09610 1.99918 -5.50339 -4.90295 0.74143 10.36740 -0.72922 0.55620 3.15760 1.93092 0.32282 -2.55330 -0.48548 4.74462 -27.59050 -8.37892 9.13750 19.75080 -1.39433 3.01546 11.40330 -0.00000 -0.00000 0.00000 -75.84681 -0.56110 38.87733 36.77502 -46.03880 -16.07789 0.00000 -0.00000 -17.32890 -0.00000 -0.00000 0.00000 80.09359 -0.83840 43.67337 -33.94511 44.04401 -14.07489 -0.00000 0.00000 -26.72620
0.00000 0.93133 0.00000 14.57800 79.25700 31.92500 0.00000 -0.00000 0.00000 -6.65501 -7.26715 -24.88670 2.29389 9.45314 27.22335 0.50704 8.05793 -18.73511 0.78494 -5.65601 -15.78954 0.00000 -0.00000 0.00000 10.18509 3.21324 -34.85197 -3.77273 -11.85167 35.20925 -0.86842 -3.39841 -19.14803 -0.08741 1.90697 -5.24862 -3.86865 0.54472 8.77580 -0.47998 0.46003 2.96874 1.63022 0.25582 -1.86435 -0.02459 5.71297 -27.33650 -9.27644 10.93180 22.17090 -1.47068 3.63877 12.48130 0.00000 -0.00000 0.00000 -80.26110 2.90593 36.14420 31.31218 -41.99190 -12.27818 0.00000 -0.00000 -7.75999 0.00000 -0.00000 0.00000 78.51461 -0.98503 40.27006 -32.94612 43.28858 -13.38511 -0.00000 0.00000 -26.39200
